<mxfile host="Electron" modified="2023-07-20T12:34:04.287Z" agent="Mozilla/5.0 (Windows NT 10.0; Win64; x64) AppleWebKit/537.36 (KHTML, like Gecko) draw.io/21.6.1 Chrome/112.0.5615.204 Electron/24.6.1 Safari/537.36" etag="tal4VMfuFzu5yl812C1g" version="21.6.1" type="device">
  <diagram id="IdtC_MJFx4cyMsjxO0qJ" name="Page-1">
    <mxGraphModel dx="780" dy="504" grid="1" gridSize="10" guides="1" tooltips="1" connect="1" arrows="1" fold="1" page="1" pageScale="1" pageWidth="827" pageHeight="1169" math="0" shadow="0">
      <root>
        <mxCell id="0" />
        <mxCell id="1" parent="0" />
        <mxCell id="8xct8dAksHGJy_eD07Iw-1" value="&lt;b&gt;&lt;font style=&quot;font-size: 16px;&quot;&gt;Resident Services&lt;/font&gt;&lt;/b&gt;" style="rounded=0;whiteSpace=wrap;html=1;" parent="1" vertex="1">
          <mxGeometry x="280" y="170" width="180" height="170" as="geometry" />
        </mxCell>
        <mxCell id="8xct8dAksHGJy_eD07Iw-2" value="&lt;b&gt;&lt;font style=&quot;font-size: 13px;&quot;&gt;Resident UI&lt;/font&gt;&lt;/b&gt;" style="rounded=0;whiteSpace=wrap;html=1;" parent="1" vertex="1">
          <mxGeometry x="480" y="440" width="80" height="60" as="geometry" />
        </mxCell>
        <mxCell id="8xct8dAksHGJy_eD07Iw-3" value="&lt;b&gt;&lt;font style=&quot;font-size: 14px;&quot;&gt;MOSIP E-Signet&lt;/font&gt;&lt;/b&gt;" style="rounded=0;whiteSpace=wrap;html=1;" parent="1" vertex="1">
          <mxGeometry x="570" y="380" width="120" height="60" as="geometry" />
        </mxCell>
        <mxCell id="8xct8dAksHGJy_eD07Iw-4" value="&lt;b&gt;ID Repository&amp;nbsp;&lt;br&gt;VID Service&lt;/b&gt;" style="rounded=0;whiteSpace=wrap;html=1;" parent="1" vertex="1">
          <mxGeometry x="540" y="220" width="120" height="60" as="geometry" />
        </mxCell>
        <mxCell id="8xct8dAksHGJy_eD07Iw-5" value="&lt;b&gt;ID Repository&amp;nbsp;&lt;br&gt;Identity Service&lt;/b&gt;" style="rounded=0;whiteSpace=wrap;html=1;" parent="1" vertex="1">
          <mxGeometry x="540" y="140" width="120" height="60" as="geometry" />
        </mxCell>
        <mxCell id="8xct8dAksHGJy_eD07Iw-6" value="&lt;b&gt;Credential Request Generator Service&lt;/b&gt;" style="rounded=0;whiteSpace=wrap;html=1;" parent="1" vertex="1">
          <mxGeometry x="490" y="60" width="120" height="60" as="geometry" />
        </mxCell>
        <mxCell id="8xct8dAksHGJy_eD07Iw-7" value="&lt;b&gt;&lt;font style=&quot;font-size: 13px;&quot;&gt;Digital Card Service&lt;/font&gt;&lt;/b&gt;" style="rounded=0;whiteSpace=wrap;html=1;" parent="1" vertex="1">
          <mxGeometry x="350" y="50" width="100" height="60" as="geometry" />
        </mxCell>
        <mxCell id="8xct8dAksHGJy_eD07Iw-8" value="&lt;font style=&quot;font-size: 13px;&quot;&gt;&lt;b&gt;Audit&lt;/b&gt; &lt;b&gt;Manager&lt;/b&gt;&lt;/font&gt;" style="rounded=0;whiteSpace=wrap;html=1;" parent="1" vertex="1">
          <mxGeometry x="230" y="50" width="100" height="60" as="geometry" />
        </mxCell>
        <mxCell id="8xct8dAksHGJy_eD07Iw-9" value="&lt;b&gt;&lt;font style=&quot;font-size: 13px;&quot;&gt;Notification Service&lt;/font&gt;&lt;/b&gt;" style="rounded=0;whiteSpace=wrap;html=1;" parent="1" vertex="1">
          <mxGeometry x="70" y="160" width="120" height="40" as="geometry" />
        </mxCell>
        <mxCell id="8xct8dAksHGJy_eD07Iw-10" value="&lt;b&gt;&lt;font style=&quot;font-size: 13px;&quot;&gt;Master data service&lt;/font&gt;&lt;/b&gt;" style="rounded=0;whiteSpace=wrap;html=1;" parent="1" vertex="1">
          <mxGeometry x="70" y="220" width="120" height="50" as="geometry" />
        </mxCell>
        <mxCell id="8xct8dAksHGJy_eD07Iw-11" value="&lt;b&gt;&lt;font style=&quot;font-size: 13px;&quot;&gt;Partner Manager Service&lt;/font&gt;&lt;/b&gt;" style="rounded=0;whiteSpace=wrap;html=1;" parent="1" vertex="1">
          <mxGeometry x="110" y="350" width="120" height="60" as="geometry" />
        </mxCell>
        <mxCell id="8xct8dAksHGJy_eD07Iw-12" value="" style="endArrow=classic;html=1;rounded=0;exitX=1;exitY=0.5;exitDx=0;exitDy=0;entryX=0;entryY=0.5;entryDx=0;entryDy=0;" parent="1" source="8xct8dAksHGJy_eD07Iw-1" target="8xct8dAksHGJy_eD07Iw-4" edge="1">
          <mxGeometry width="50" height="50" relative="1" as="geometry">
            <mxPoint x="380" y="260" as="sourcePoint" />
            <mxPoint x="430" y="210" as="targetPoint" />
          </mxGeometry>
        </mxCell>
        <mxCell id="8xct8dAksHGJy_eD07Iw-15" value="" style="endArrow=classic;html=1;rounded=0;entryX=1;entryY=0.5;entryDx=0;entryDy=0;" parent="1" target="8xct8dAksHGJy_eD07Iw-10" edge="1">
          <mxGeometry width="50" height="50" relative="1" as="geometry">
            <mxPoint x="280" y="245" as="sourcePoint" />
            <mxPoint x="190" y="250" as="targetPoint" />
          </mxGeometry>
        </mxCell>
        <mxCell id="8xct8dAksHGJy_eD07Iw-17" value="&lt;b&gt;&lt;font style=&quot;font-size: 13px;&quot;&gt;WebSub&lt;/font&gt;&lt;/b&gt;" style="rounded=0;whiteSpace=wrap;html=1;" parent="1" vertex="1">
          <mxGeometry x="370" y="440" width="103.5" height="60" as="geometry" />
        </mxCell>
        <mxCell id="8xct8dAksHGJy_eD07Iw-18" value="" style="endArrow=classic;html=1;rounded=0;exitX=0.25;exitY=0;exitDx=0;exitDy=0;" parent="1" source="8xct8dAksHGJy_eD07Iw-17" edge="1">
          <mxGeometry width="50" height="50" relative="1" as="geometry">
            <mxPoint x="394" y="430" as="sourcePoint" />
            <mxPoint x="396" y="340" as="targetPoint" />
          </mxGeometry>
        </mxCell>
        <mxCell id="8xct8dAksHGJy_eD07Iw-19" value="" style="endArrow=classic;html=1;rounded=0;entryX=1;entryY=0.5;entryDx=0;entryDy=0;exitX=0;exitY=1;exitDx=0;exitDy=0;" parent="1" source="8xct8dAksHGJy_eD07Iw-1" target="8xct8dAksHGJy_eD07Iw-11" edge="1">
          <mxGeometry width="50" height="50" relative="1" as="geometry">
            <mxPoint x="210" y="320" as="sourcePoint" />
            <mxPoint x="260" y="270" as="targetPoint" />
          </mxGeometry>
        </mxCell>
        <mxCell id="8xct8dAksHGJy_eD07Iw-20" value="" style="endArrow=classic;html=1;rounded=0;exitX=0;exitY=0;exitDx=0;exitDy=0;" parent="1" source="8xct8dAksHGJy_eD07Iw-1" edge="1">
          <mxGeometry width="50" height="50" relative="1" as="geometry">
            <mxPoint x="312.5" y="260" as="sourcePoint" />
            <mxPoint x="260" y="100" as="targetPoint" />
            <Array as="points">
              <mxPoint x="260" y="170" />
            </Array>
          </mxGeometry>
        </mxCell>
        <mxCell id="8xct8dAksHGJy_eD07Iw-21" value="" style="endArrow=classic;html=1;rounded=0;" parent="1" edge="1">
          <mxGeometry width="50" height="50" relative="1" as="geometry">
            <mxPoint x="339" y="170" as="sourcePoint" />
            <mxPoint x="339" y="100" as="targetPoint" />
            <Array as="points">
              <mxPoint x="339" y="140" />
            </Array>
          </mxGeometry>
        </mxCell>
        <mxCell id="8xct8dAksHGJy_eD07Iw-22" value="" style="endArrow=classic;html=1;rounded=0;exitX=1;exitY=0;exitDx=0;exitDy=0;entryX=0;entryY=1;entryDx=0;entryDy=0;" parent="1" source="8xct8dAksHGJy_eD07Iw-1" target="8xct8dAksHGJy_eD07Iw-6" edge="1">
          <mxGeometry width="50" height="50" relative="1" as="geometry">
            <mxPoint x="320" y="200" as="sourcePoint" />
            <mxPoint x="280" y="110" as="targetPoint" />
          </mxGeometry>
        </mxCell>
        <mxCell id="8xct8dAksHGJy_eD07Iw-23" value="" style="endArrow=classic;html=1;rounded=0;entryX=0;entryY=0.5;entryDx=0;entryDy=0;exitX=1;exitY=0.25;exitDx=0;exitDy=0;" parent="1" source="8xct8dAksHGJy_eD07Iw-1" target="8xct8dAksHGJy_eD07Iw-5" edge="1">
          <mxGeometry width="50" height="50" relative="1" as="geometry">
            <mxPoint x="410" y="200" as="sourcePoint" />
            <mxPoint x="490" y="110" as="targetPoint" />
          </mxGeometry>
        </mxCell>
        <mxCell id="8xct8dAksHGJy_eD07Iw-26" value="&lt;b&gt;&lt;font style=&quot;font-size: 13px;&quot;&gt;ID Authentication&lt;/font&gt;&lt;/b&gt;" style="rounded=0;whiteSpace=wrap;html=1;" parent="1" vertex="1">
          <mxGeometry x="540" y="300" width="120" height="60" as="geometry" />
        </mxCell>
        <mxCell id="8xct8dAksHGJy_eD07Iw-28" value="" style="endArrow=classic;html=1;rounded=0;entryX=0;entryY=0.5;entryDx=0;entryDy=0;" parent="1" source="8xct8dAksHGJy_eD07Iw-1" target="8xct8dAksHGJy_eD07Iw-26" edge="1">
          <mxGeometry width="50" height="50" relative="1" as="geometry">
            <mxPoint x="420" y="290" as="sourcePoint" />
            <mxPoint x="470" y="240" as="targetPoint" />
          </mxGeometry>
        </mxCell>
        <mxCell id="8xct8dAksHGJy_eD07Iw-29" value="&lt;b&gt;&lt;font style=&quot;font-size: 13px;&quot;&gt;Keycloak&lt;/font&gt;&lt;/b&gt;" style="rounded=0;whiteSpace=wrap;html=1;" parent="1" vertex="1">
          <mxGeometry x="70" y="280" width="120" height="40" as="geometry" />
        </mxCell>
        <mxCell id="8xct8dAksHGJy_eD07Iw-30" value="" style="endArrow=classic;html=1;rounded=0;exitX=0;exitY=0.75;exitDx=0;exitDy=0;" parent="1" source="8xct8dAksHGJy_eD07Iw-1" edge="1">
          <mxGeometry width="50" height="50" relative="1" as="geometry">
            <mxPoint x="280" y="230" as="sourcePoint" />
            <mxPoint x="190" y="298" as="targetPoint" />
          </mxGeometry>
        </mxCell>
        <mxCell id="8xct8dAksHGJy_eD07Iw-31" value="&lt;b&gt;&lt;font style=&quot;font-size: 13px;&quot;&gt;Packet Manager&lt;/font&gt;&lt;/b&gt;" style="rounded=0;whiteSpace=wrap;html=1;" parent="1" vertex="1">
          <mxGeometry x="140" y="440" width="100" height="60" as="geometry" />
        </mxCell>
        <mxCell id="8xct8dAksHGJy_eD07Iw-32" value="&lt;b&gt;&lt;font style=&quot;font-size: 13px;&quot;&gt;Registration Processor&lt;/font&gt;&lt;/b&gt;" style="rounded=0;whiteSpace=wrap;html=1;" parent="1" vertex="1">
          <mxGeometry x="270" y="440" width="90" height="60" as="geometry" />
        </mxCell>
        <mxCell id="8xct8dAksHGJy_eD07Iw-33" value="" style="endArrow=classic;html=1;rounded=0;entryX=1;entryY=0;entryDx=0;entryDy=0;" parent="1" target="8xct8dAksHGJy_eD07Iw-31" edge="1">
          <mxGeometry width="50" height="50" relative="1" as="geometry">
            <mxPoint x="310" y="340" as="sourcePoint" />
            <mxPoint x="200" y="350" as="targetPoint" />
          </mxGeometry>
        </mxCell>
        <mxCell id="MJiMK6wVdFbHmo4bfG6_-1" value="6" style="ellipse;whiteSpace=wrap;html=1;aspect=fixed;" parent="1" vertex="1">
          <mxGeometry x="500" y="290" width="20" height="20" as="geometry" />
        </mxCell>
        <mxCell id="MJiMK6wVdFbHmo4bfG6_-2" value="4" style="ellipse;whiteSpace=wrap;html=1;aspect=fixed;" parent="1" vertex="1">
          <mxGeometry x="490" y="170" width="20" height="20" as="geometry" />
        </mxCell>
        <mxCell id="MJiMK6wVdFbHmo4bfG6_-3" value="3" style="ellipse;whiteSpace=wrap;html=1;aspect=fixed;" parent="1" vertex="1">
          <mxGeometry x="490" y="120" width="20" height="20" as="geometry" />
        </mxCell>
        <mxCell id="MJiMK6wVdFbHmo4bfG6_-5" value="2" style="ellipse;whiteSpace=wrap;html=1;aspect=fixed;" parent="1" vertex="1">
          <mxGeometry x="350" y="130" width="20" height="20" as="geometry" />
        </mxCell>
        <mxCell id="MJiMK6wVdFbHmo4bfG6_-6" value="1" style="ellipse;whiteSpace=wrap;html=1;aspect=fixed;" parent="1" vertex="1">
          <mxGeometry x="270" y="130" width="20" height="20" as="geometry" />
        </mxCell>
        <mxCell id="MJiMK6wVdFbHmo4bfG6_-8" value="14" style="ellipse;whiteSpace=wrap;html=1;aspect=fixed;" parent="1" vertex="1">
          <mxGeometry x="200" y="250" width="20" height="20" as="geometry" />
        </mxCell>
        <mxCell id="xo59zoPnuVy_pLfNHGtU-2" value="" style="edgeStyle=orthogonalEdgeStyle;rounded=0;orthogonalLoop=1;jettySize=auto;html=1;" edge="1" parent="1" source="MJiMK6wVdFbHmo4bfG6_-9" target="MJiMK6wVdFbHmo4bfG6_-25">
          <mxGeometry relative="1" as="geometry" />
        </mxCell>
        <mxCell id="MJiMK6wVdFbHmo4bfG6_-9" value="13" style="ellipse;whiteSpace=wrap;html=1;aspect=fixed;" parent="1" vertex="1">
          <mxGeometry x="200" y="300" width="20" height="20" as="geometry" />
        </mxCell>
        <mxCell id="MJiMK6wVdFbHmo4bfG6_-10" value="12" style="ellipse;whiteSpace=wrap;html=1;aspect=fixed;" parent="1" vertex="1">
          <mxGeometry x="240" y="340" width="20" height="20" as="geometry" />
        </mxCell>
        <mxCell id="xo59zoPnuVy_pLfNHGtU-1" value="" style="edgeStyle=orthogonalEdgeStyle;rounded=0;orthogonalLoop=1;jettySize=auto;html=1;" edge="1" parent="1" source="MJiMK6wVdFbHmo4bfG6_-11" target="MJiMK6wVdFbHmo4bfG6_-10">
          <mxGeometry relative="1" as="geometry" />
        </mxCell>
        <mxCell id="MJiMK6wVdFbHmo4bfG6_-11" value="11" style="ellipse;whiteSpace=wrap;html=1;aspect=fixed;" parent="1" vertex="1">
          <mxGeometry x="240" y="390" width="20" height="20" as="geometry" />
        </mxCell>
        <mxCell id="MJiMK6wVdFbHmo4bfG6_-12" value="10" style="ellipse;whiteSpace=wrap;html=1;aspect=fixed;" parent="1" vertex="1">
          <mxGeometry x="300" y="390" width="20" height="20" as="geometry" />
        </mxCell>
        <mxCell id="MJiMK6wVdFbHmo4bfG6_-13" value="9" style="ellipse;whiteSpace=wrap;html=1;aspect=fixed;" parent="1" vertex="1">
          <mxGeometry x="370" y="390" width="20" height="20" as="geometry" />
        </mxCell>
        <mxCell id="MJiMK6wVdFbHmo4bfG6_-14" value="8" style="ellipse;whiteSpace=wrap;html=1;aspect=fixed;" parent="1" vertex="1">
          <mxGeometry x="490" y="410" width="20" height="20" as="geometry" />
        </mxCell>
        <mxCell id="MJiMK6wVdFbHmo4bfG6_-15" value="7" style="ellipse;whiteSpace=wrap;html=1;aspect=fixed;" parent="1" vertex="1">
          <mxGeometry x="503.5" y="350" width="20" height="20" as="geometry" />
        </mxCell>
        <mxCell id="MJiMK6wVdFbHmo4bfG6_-18" value="" style="endArrow=classic;html=1;rounded=0;exitX=0;exitY=0.25;exitDx=0;exitDy=0;entryX=1;entryY=0.5;entryDx=0;entryDy=0;" parent="1" source="8xct8dAksHGJy_eD07Iw-1" target="8xct8dAksHGJy_eD07Iw-9" edge="1">
          <mxGeometry width="50" height="50" relative="1" as="geometry">
            <mxPoint x="280" y="212.5" as="sourcePoint" />
            <mxPoint x="250" y="180" as="targetPoint" />
          </mxGeometry>
        </mxCell>
        <mxCell id="MJiMK6wVdFbHmo4bfG6_-24" value="5" style="ellipse;whiteSpace=wrap;html=1;aspect=fixed;" parent="1" vertex="1">
          <mxGeometry x="500" y="230" width="20" height="20" as="geometry" />
        </mxCell>
        <mxCell id="MJiMK6wVdFbHmo4bfG6_-25" value="15" style="ellipse;whiteSpace=wrap;html=1;aspect=fixed;" parent="1" vertex="1">
          <mxGeometry x="200" y="190" width="20" height="20" as="geometry" />
        </mxCell>
        <mxCell id="MJiMK6wVdFbHmo4bfG6_-29" value="&lt;font style=&quot;font-size: 13px;&quot;&gt;&lt;b&gt;Key Manager&lt;/b&gt;&lt;/font&gt;" style="rounded=0;whiteSpace=wrap;html=1;" parent="1" vertex="1">
          <mxGeometry x="70" y="70" width="100" height="60" as="geometry" />
        </mxCell>
        <mxCell id="MJiMK6wVdFbHmo4bfG6_-35" value="16" style="ellipse;whiteSpace=wrap;html=1;aspect=fixed;" parent="1" vertex="1">
          <mxGeometry x="190" y="130" width="20" height="20" as="geometry" />
        </mxCell>
        <mxCell id="NOFrJTyZZXEDuQyi9nta-16" value="" style="endArrow=classic;html=1;rounded=0;" parent="1" edge="1">
          <mxGeometry width="50" height="50" relative="1" as="geometry">
            <mxPoint x="440" y="340" as="sourcePoint" />
            <mxPoint x="510" y="440" as="targetPoint" />
            <Array as="points">
              <mxPoint x="440" y="410" />
            </Array>
          </mxGeometry>
        </mxCell>
        <mxCell id="NOFrJTyZZXEDuQyi9nta-19" value="" style="endArrow=classic;html=1;rounded=0;exitX=0.25;exitY=1;exitDx=0;exitDy=0;" parent="1" source="8xct8dAksHGJy_eD07Iw-1" edge="1">
          <mxGeometry width="50" height="50" relative="1" as="geometry">
            <mxPoint x="310" y="560" as="sourcePoint" />
            <mxPoint x="325" y="440" as="targetPoint" />
          </mxGeometry>
        </mxCell>
        <mxCell id="NOFrJTyZZXEDuQyi9nta-30" value="" style="endArrow=classic;html=1;rounded=0;entryX=0.75;entryY=1;entryDx=0;entryDy=0;exitX=-0.007;exitY=0.161;exitDx=0;exitDy=0;exitPerimeter=0;" parent="1" source="8xct8dAksHGJy_eD07Iw-1" target="MJiMK6wVdFbHmo4bfG6_-29" edge="1">
          <mxGeometry width="50" height="50" relative="1" as="geometry">
            <mxPoint x="270" y="180" as="sourcePoint" />
            <mxPoint x="360" y="130" as="targetPoint" />
          </mxGeometry>
        </mxCell>
        <mxCell id="NOFrJTyZZXEDuQyi9nta-41" value="" style="endArrow=classic;html=1;rounded=0;fontSize=13;entryX=0;entryY=0.5;entryDx=0;entryDy=0;exitX=1;exitY=1;exitDx=0;exitDy=0;" parent="1" source="8xct8dAksHGJy_eD07Iw-1" target="8xct8dAksHGJy_eD07Iw-3" edge="1">
          <mxGeometry width="50" height="50" relative="1" as="geometry">
            <mxPoint x="310" y="340" as="sourcePoint" />
            <mxPoint x="360" y="290" as="targetPoint" />
          </mxGeometry>
        </mxCell>
      </root>
    </mxGraphModel>
  </diagram>
</mxfile>
